<svg width="72" height="16" viewBox="0 0 72 16" fill="none" xmlns="http://www.w3.org/2000/svg">
<g clip-path="url(#clip0_39_16)">
<path d="M10.96 13L6.384 1.8H7.936L11.92 11.688H11.968L15.936 1.8H17.456L12.864 13H10.96ZM22.0694 13.16C21.28 13.16 20.5654 12.9787 19.9254 12.616C19.2854 12.2533 18.7787 11.7627 18.4054 11.144C18.0427 10.5147 17.8614 9.81067 17.8614 9.032C17.8614 8.232 18.048 7.51733 18.4214 6.888C18.7947 6.248 19.3014 5.74667 19.9414 5.384C20.5814 5.02133 21.296 4.84 22.0854 4.84C22.864 4.84 23.568 5.02133 24.1974 5.384C24.8374 5.74667 25.3387 6.248 25.7014 6.888C26.0747 7.51733 26.2614 8.22133 26.2614 9C26.2614 9.02133 26.2614 9.048 26.2614 9.08C26.2614 9.112 26.2614 9.13867 26.2614 9.16H19.1094C19.1307 9.69333 19.2747 10.1787 19.5414 10.616C19.808 11.0427 20.16 11.384 20.5974 11.64C21.0454 11.8853 21.5414 12.008 22.0854 12.008C22.6827 12.008 23.2107 11.8747 23.6694 11.608C24.128 11.3307 24.4427 10.9733 24.6134 10.536H25.9734C25.8774 11.0053 25.648 11.4427 25.2854 11.848C24.9334 12.2427 24.48 12.5627 23.9254 12.808C23.3707 13.0427 22.752 13.16 22.0694 13.16ZM25.0454 8.84C25.024 8.30667 24.88 7.82667 24.6134 7.4C24.3467 6.96267 23.9894 6.62133 23.5414 6.376C23.104 6.12 22.6187 5.992 22.0854 5.992C21.552 5.992 21.0614 6.12 20.6134 6.376C20.176 6.62133 19.8187 6.96267 19.5414 7.4C19.2747 7.82667 19.1307 8.30667 19.1094 8.84H25.0454ZM31.9444 13.16C31.1444 13.16 30.4244 12.9787 29.7844 12.616C29.1444 12.2533 28.643 11.7573 28.2804 11.128C27.9177 10.4987 27.7364 9.78933 27.7364 9C27.7364 8.21067 27.9177 7.50133 28.2804 6.872C28.643 6.24267 29.1444 5.74667 29.7844 5.384C30.4244 5.02133 31.1444 4.84 31.9444 4.84C32.6484 4.84 33.283 4.97333 33.8484 5.24C34.4244 5.50667 34.8884 5.88533 35.2404 6.376C35.5924 6.86667 35.8164 7.42667 35.9124 8.056H34.6484C34.499 7.42667 34.1844 6.93067 33.7044 6.568C33.2244 6.19467 32.6377 6.008 31.9444 6.008C31.3897 6.008 30.8884 6.14133 30.4404 6.408C29.9924 6.664 29.6404 7.02133 29.3844 7.48C29.1284 7.93867 29.0004 8.44533 29.0004 9C29.0004 9.55467 29.1284 10.0613 29.3844 10.52C29.6404 10.9787 29.9924 11.3413 30.4404 11.608C30.8884 11.864 31.3897 11.992 31.9444 11.992C32.6377 11.992 33.2244 11.8053 33.7044 11.432C34.1844 11.0587 34.499 10.5573 34.6484 9.928H35.9124C35.8164 10.5573 35.5924 11.1173 35.2404 11.608C34.8884 12.0987 34.4244 12.4827 33.8484 12.76C33.283 13.0267 32.6484 13.16 31.9444 13.16ZM41.5903 13.16C40.6196 13.16 39.8996 12.9413 39.4303 12.504C38.9609 12.056 38.7263 11.4 38.7263 10.536V6.168H36.7743V5H38.2623C38.4543 5 38.5983 4.952 38.6943 4.856C38.7903 4.74933 38.8383 4.6 38.8383 4.408V3.08H40.0063L39.9903 5H43.4303V6.168H39.9903V10.264C39.9903 10.8507 40.1396 11.2827 40.4383 11.56C40.7369 11.8267 41.2009 11.96 41.8303 11.96C42.2889 11.96 42.8223 11.8853 43.4303 11.736V12.904C43.1529 12.968 42.8383 13.0267 42.4863 13.08C42.1449 13.1333 41.8463 13.16 41.5903 13.16ZM48.774 13.16C47.974 13.16 47.2433 12.9787 46.582 12.616C45.9313 12.2533 45.4193 11.7573 45.046 11.128C44.6833 10.488 44.502 9.77867 44.502 9C44.502 8.22133 44.6833 7.51733 45.046 6.888C45.4193 6.248 45.9313 5.74667 46.582 5.384C47.2433 5.02133 47.974 4.84 48.774 4.84C49.5633 4.84 50.2833 5.02133 50.934 5.384C51.5847 5.74667 52.0967 6.248 52.47 6.888C52.854 7.51733 53.046 8.22133 53.046 9C53.046 9.77867 52.854 10.488 52.47 11.128C52.0967 11.7573 51.5847 12.2533 50.934 12.616C50.2833 12.9787 49.5633 13.16 48.774 13.16ZM48.774 11.96C49.318 11.96 49.814 11.832 50.262 11.576C50.7207 11.3093 51.078 10.952 51.334 10.504C51.6007 10.056 51.734 9.55467 51.734 9C51.734 8.44533 51.6007 7.944 51.334 7.496C51.078 7.03733 50.7207 6.68 50.262 6.424C49.814 6.15733 49.318 6.024 48.774 6.024C48.2193 6.024 47.7127 6.15733 47.254 6.424C46.806 6.68 46.4487 7.03733 46.182 7.496C45.926 7.944 45.798 8.44533 45.798 9C45.798 9.55467 45.926 10.056 46.182 10.504C46.4487 10.952 46.806 11.3093 47.254 11.576C47.7127 11.832 48.2193 11.96 48.774 11.96ZM55.3173 13V5H56.5973V7.512C56.7893 6.744 57.1359 6.10933 57.6373 5.608C58.1493 5.096 58.7679 4.84 59.4933 4.84C60.0373 4.84 60.4959 4.95733 60.8693 5.192C61.2533 5.416 61.5359 5.752 61.7173 6.2C61.9093 6.63733 62.0052 7.17067 62.0052 7.8V8.344H60.7413V8.024C60.7413 7.384 60.5813 6.89333 60.2613 6.552C59.9519 6.21067 59.5093 6.04 58.9333 6.04C58.4959 6.04 58.1013 6.168 57.7493 6.424C57.3973 6.66933 57.1146 7.00533 56.9013 7.432C56.6986 7.85867 56.5973 8.33333 56.5973 8.856V13H55.3173Z" fill="#2DDB81"/>
</g>
<defs>
<clipPath id="clip0_39_16">
<rect width="72" height="16" fill="white"/>
</clipPath>
</defs>
</svg>
