<svg width="94" height="21" viewBox="0 0 94 21" fill="none" xmlns="http://www.w3.org/2000/svg">
<g clip-path="url(#clip0_51_168)">
<path d="M10.44 21L3.576 4.2H5.904L11.88 19.032H11.952L17.904 4.2H20.184L13.296 21H10.44ZM27.1041 21.24C25.9201 21.24 24.8481 20.968 23.8881 20.424C22.9281 19.88 22.1681 19.144 21.6081 18.216C21.0641 17.272 20.7921 16.216 20.7921 15.048C20.7921 13.848 21.0721 12.776 21.6321 11.832C22.1921 10.872 22.9521 10.12 23.9121 9.576C24.8721 9.032 25.9441 8.76 27.1281 8.76C28.2961 8.76 29.3521 9.032 30.2961 9.576C31.2561 10.12 32.0081 10.872 32.5521 11.832C33.1121 12.776 33.3921 13.832 33.3921 15C33.3921 15.032 33.3921 15.072 33.3921 15.12C33.3921 15.168 33.3921 15.208 33.3921 15.24H22.6641C22.6961 16.04 22.9121 16.768 23.3121 17.424C23.7121 18.064 24.2401 18.576 24.8961 18.96C25.5681 19.328 26.3121 19.512 27.1281 19.512C28.0241 19.512 28.8161 19.312 29.5041 18.912C30.1921 18.496 30.6641 17.96 30.9201 17.304H32.9601C32.8161 18.008 32.4721 18.664 31.9281 19.272C31.4001 19.864 30.7201 20.344 29.8881 20.712C29.0561 21.064 28.1281 21.24 27.1041 21.24ZM31.5681 14.76C31.5361 13.96 31.3201 13.24 30.9201 12.6C30.5201 11.944 29.9841 11.432 29.3121 11.064C28.6561 10.68 27.9281 10.488 27.1281 10.488C26.3281 10.488 25.5921 10.68 24.9201 11.064C24.2641 11.432 23.7281 11.944 23.3121 12.6C22.9121 13.24 22.6961 13.96 22.6641 14.76H31.5681ZM41.9166 21.24C40.7166 21.24 39.6366 20.968 38.6766 20.424C37.7166 19.88 36.9646 19.136 36.4206 18.192C35.8766 17.248 35.6046 16.184 35.6046 15C35.6046 13.816 35.8766 12.752 36.4206 11.808C36.9646 10.864 37.7166 10.12 38.6766 9.576C39.6366 9.032 40.7166 8.76 41.9166 8.76C42.9726 8.76 43.9246 8.96 44.7726 9.36C45.6366 9.76 46.3326 10.328 46.8606 11.064C47.3886 11.8 47.7246 12.64 47.8686 13.584H45.9726C45.7486 12.64 45.2766 11.896 44.5566 11.352C43.8366 10.792 42.9566 10.512 41.9166 10.512C41.0846 10.512 40.3326 10.712 39.6606 11.112C38.9886 11.496 38.4606 12.032 38.0766 12.72C37.6926 13.408 37.5006 14.168 37.5006 15C37.5006 15.832 37.6926 16.592 38.0766 17.28C38.4606 17.968 38.9886 18.512 39.6606 18.912C40.3326 19.296 41.0846 19.488 41.9166 19.488C42.9566 19.488 43.8366 19.208 44.5566 18.648C45.2766 18.088 45.7486 17.336 45.9726 16.392H47.8686C47.7246 17.336 47.3886 18.176 46.8606 18.912C46.3326 19.648 45.6366 20.224 44.7726 20.64C43.9246 21.04 42.9726 21.24 41.9166 21.24ZM56.3854 21.24C54.9294 21.24 53.8494 20.912 53.1454 20.256C52.4414 19.584 52.0894 18.6 52.0894 17.304V10.752H49.1614V9H51.3934C51.6814 9 51.8974 8.928 52.0414 8.784C52.1854 8.624 52.2574 8.4 52.2574 8.112V6.12H54.0094L53.9854 9H59.1454V10.752H53.9854V16.896C53.9854 17.776 54.2094 18.424 54.6574 18.84C55.1054 19.24 55.8014 19.44 56.7454 19.44C57.4334 19.44 58.2334 19.328 59.1454 19.104V20.856C58.7294 20.952 58.2574 21.04 57.7294 21.12C57.2174 21.2 56.7694 21.24 56.3854 21.24ZM67.161 21.24C65.961 21.24 64.865 20.968 63.873 20.424C62.897 19.88 62.129 19.136 61.569 18.192C61.025 17.232 60.753 16.168 60.753 15C60.753 13.832 61.025 12.776 61.569 11.832C62.129 10.872 62.897 10.12 63.873 9.576C64.865 9.032 65.961 8.76 67.161 8.76C68.345 8.76 69.425 9.032 70.401 9.576C71.377 10.12 72.145 10.872 72.705 11.832C73.281 12.776 73.569 13.832 73.569 15C73.569 16.168 73.281 17.232 72.705 18.192C72.145 19.136 71.377 19.88 70.401 20.424C69.425 20.968 68.345 21.24 67.161 21.24ZM67.161 19.44C67.977 19.44 68.721 19.248 69.393 18.864C70.081 18.464 70.617 17.928 71.001 17.256C71.401 16.584 71.601 15.832 71.601 15C71.601 14.168 71.401 13.416 71.001 12.744C70.617 12.056 70.081 11.52 69.393 11.136C68.721 10.736 67.977 10.536 67.161 10.536C66.329 10.536 65.569 10.736 64.881 11.136C64.209 11.52 63.673 12.056 63.273 12.744C62.889 13.416 62.697 14.168 62.697 15C62.697 15.832 62.889 16.584 63.273 17.256C63.673 17.928 64.209 18.464 64.881 18.864C65.569 19.248 66.329 19.44 67.161 19.44ZM76.9759 21V9H78.8959V12.768C79.1839 11.616 79.7039 10.664 80.4559 9.912C81.2239 9.144 82.1519 8.76 83.2399 8.76C84.0559 8.76 84.7439 8.936 85.3039 9.288C85.8799 9.624 86.3039 10.128 86.5759 10.8C86.8639 11.456 87.0079 12.256 87.0079 13.2V14.016H85.1119V13.536C85.1119 12.576 84.8719 11.84 84.3919 11.328C83.9279 10.816 83.2639 10.56 82.3999 10.56C81.7439 10.56 81.1519 10.752 80.6239 11.136C80.0959 11.504 79.6719 12.008 79.3519 12.648C79.0479 13.288 78.8959 14 78.8959 14.784V21H76.9759Z" fill="#2DDB81"/>
</g>
<defs>
<clipPath id="clip0_51_168">
<rect width="94" height="21" fill="white"/>
</clipPath>
</defs>
</svg>
